PathFileType	4	(X/Y/Z)	C:\Users\chris\Documents\GitHub\baseballds\vids\pitch1_Sports2D\pitch1_Sports2D_px_person00.trc
DataRate	CameraRate	NumFrames	NumMarkers	Units	OrigDataRate	OrigDataStartFrame	OrigNumFrames
30	30	7	22	m	30	57	154
Frame#	Time	Hip			RHip			RKnee			RAnkle			RBigToe			RSmallToe			RHeel			LHip			LKnee			LAnkle			LBigToe			LSmallToe			LHeel			Neck			Head			Nose			RShoulder			RElbow			RWrist			LShoulder			LElbow			LWrist		
		X1	Y1	Z1	X2	Y2	Z2	X3	Y3	Z3	X4	Y4	Z4	X5	Y5	Z5	X6	Y6	Z6	X7	Y7	Z7	X8	Y8	Z8	X9	Y9	Z9	X10	Y10	Z10	X11	Y11	Z11	X12	Y12	Z12	X13	Y13	Z13	X14	Y14	Z14	X15	Y15	Z15	X16	Y16	Z16	X17	Y17	Z17	X18	Y18	Z18	X19	Y19	Z19	X20	Y20	Z20	X21	Y21	Z21	X22	Y22	Z22
57	1.9	778.8122396785504	519.9320139954448	0.0	726.8874556363592	533.7638748511853	0.0	728.5702771918457	732.3400795123376	0.0	723.5322553221768	900.7934823874243	0.0	734.2212907210626	954.1218651601644	0.0	701.2707658293311	951.6979128183351	0.0	729.252643773596	921.1529727115454	0.0	830.2719690084687	533.7688730598945	0.0	836.0076052338405	726.4116484380853	0.0	860.92040299506	893.4405567401792	0.0	826.7065326494624	951.6912868613582	0.0	861.568695237982	950.5334849471486	0.0	867.3202120091403	916.3963321117467	0.0	779.2710892948517	247.35449148046368	0.0	805.5778593529925	126.8924468302412	0.0	848.2016551348945	195.74192730788855	0.0	687.688780995993	290.3466010110583	0.0	652.1307287230559	426.7542451640004	0.0	730.1589261278187	410.67403444089007	0.0	864.2541543824113	292.3158267731682	0.0	899.741410961979	418.62168994869575	0.0	845.0541880124358	440.051548937205	0.0
58	1.9333333333333333	780.9586793214106	520.6348474052751	0.0	729.5206657381086	534.8684945425016	0.0	730.5956705991399	732.3845674296267	0.0	725.3745841196538	900.3689101488787	0.0	735.8508238864387	952.6679372059594	0.0	702.7837387967198	950.2738858020612	0.0	731.4071486062836	920.6444168115006	0.0	832.5685714868835	534.868174635086	0.0	837.9299456102469	727.2062262970076	0.0	862.9063159910714	892.9543146246522	0.0	828.7124627246635	952.2133826109721	0.0	863.1998719871189	951.0326101104818	0.0	869.2031191683309	915.2092469911104	0.0	780.7938975589052	247.64926547322597	0.0	808.1791890951648	126.90584201935908	0.0	849.4958040286485	196.44340142019786	0.0	689.3233100778739	290.2238578441	0.0	654.4461770935034	427.0926522596068	0.0	733.3850935068411	410.05228604498166	0.0	866.4057155337749	291.8300297045401	0.0	901.0024396900636	418.81242448150635	0.0	846.4109244114411	441.5179644398361	0.0
59	1.9666666666666666	782.5465229454742	521.1547505148469	0.0	731.6264709823967	536.5361521463701	0.0	732.4566339532798	732.9717003704134	0.0	727.2602088534057	899.1348009563562	0.0	738.796009949032	952.7634162605445	0.0	705.1224375785262	950.1230396222641	0.0	732.9784607517333	919.3871766678476	0.0	834.2388218268577	536.5299933601736	0.0	839.8733006761615	727.9760250611408	0.0	864.6626903168312	892.2848577437694	0.0	831.2274489674144	952.7555436674987	0.0	865.1684594552177	951.3589501954788	0.0	870.7396038133343	914.3232196546811	0.0	782.8853429113105	247.50756215902766	0.0	811.1026332974724	127.2284532210274	0.0	851.7615709366553	197.0601352503296	0.0	690.7850593957053	290.33757254266095	0.0	656.175491282555	427.05253916174	0.0	735.776016935303	409.58366383403296	0.0	869.5739290651109	292.0418723905126	0.0	902.5489524723744	420.6306295682459	0.0	848.0112603024654	442.29109249654357	0.0
60	2.0	783.9825447190649	521.734104682729	0.0	733.2139175028583	537.6173749490417	0.0	734.1163343295267	733.5540091768762	0.0	728.9631512221198	897.1780311296114	0.0	741.925634973057	953.311625988106	0.0	707.8442569011437	950.1209695619295	0.0	734.4087334371474	917.7160169414426	0.0	835.8437857226352	537.606964574168	0.0	842.0362036615267	728.7650830768914	0.0	866.3908644323121	892.4683600231576	0.0	833.3464614122628	953.0639837499085	0.0	867.4160350250366	951.1592395370466	0.0	872.2234667253971	914.2587236332424	0.0	785.235932330101	247.1933553269763	0.0	813.8706160868282	127.4166091171756	0.0	854.528089781997	197.75251320753762	0.0	692.6216659238678	290.78258271958896	0.0	657.5636799661672	426.4958873311043	0.0	737.7814649052441	410.04068509552053	0.0	872.4438829058047	292.465614530177	0.0	904.6268902777343	421.59273262586726	0.0	850.6824198342024	441.96206236189715	0.0
61	2.033333333333333	785.8732973733474	522.3765699325296	0.0	735.0106753698999	537.9102395684181	0.0	735.609699698608	733.7280804204755	0.0	730.7042173241298	895.4853083542904	0.0	744.1612515261644	952.7821532777725	0.0	710.2544111387255	949.0381482068555	0.0	736.4833284482173	916.557172159776	0.0	837.6154076840259	537.9179796337938	0.0	844.1037001305758	729.4269685326539	0.0	868.0852614862777	892.8030034507593	0.0	835.00170852016	953.0707706509212	0.0	869.6252356715798	950.6503279430884	0.0	874.1673608189989	913.9632976653829	0.0	787.0249772610821	247.117046155326	0.0	816.3008617319662	127.57952415040525	0.0	856.9514479933912	198.8434000127051	0.0	694.7496374615348	291.06949100000907	0.0	659.476398357548	425.9515178765797	0.0	740.2738001939606	410.926353462358	0.0	874.0490897268539	292.4046306360377	0.0	907.0338278637374	420.29035138819063	0.0	854.1635251377672	441.2569012784544	0.0
62	2.0666666666666664	788.2526762767732	522.4741832938322	0.0	736.9869800925396	537.6494573613729	0.0	737.0931176217387	733.4939627730992	0.0	732.6740727131739	895.4746135333239	0.0	745.8466722125668	952.70437245412	0.0	712.0682782111796	948.7456394958278	0.0	738.7744459369235	916.8257533911789	0.0	839.2751998879601	537.7158079045528	0.0	845.7985739673288	729.2126798135478	0.0	869.6473634452858	892.4292853827021	0.0	837.1535244467029	953.0060001417277	0.0	871.738953912791	950.3248799786885	0.0	876.3102549460763	913.5426650964208	0.0	788.796868113703	247.09699382224574	0.0	818.6321015696482	127.95832496853416	0.0	858.9598635884101	199.50354408955505	0.0	696.7816513182704	290.973856752369	0.0	662.1710782693813	425.574889911645	0.0	742.516392470442	410.81436565647317	0.0	874.9553301008858	292.2528265923162	0.0	909.2942779302386	418.9250662704618	0.0	856.9499698610338	440.56778289971726	0.0
63	2.1	790.5331542448499	521.7998298691823	0.0	738.7261864973688	536.9855452716855	0.0	738.8248100434494	733.1999569210924	0.0	734.6911011193729	896.87233853374	0.0	747.3613641028275	954.5495759059288	0.0	713.4308874177956	950.805285617186	0.0	740.2599656792034	917.7541666536513	0.0	840.9718447972182	537.0715007939332	0.0	847.2562837624363	728.0208286533968	0.0	871.4616372244001	891.7762896506526	0.0	839.8699677823676	952.8973006299047	0.0	873.7411824589906	950.1640949649102	0.0	878.0959066732785	913.7806754126298	0.0	791.2835345614907	247.0029884368162	0.0	821.1224970436849	128.11113704170765	0.0	860.9945426534482	199.27754033061302	0.0	698.8185935464585	290.6166078451793	0.0	664.9799889468113	424.97866881642494	0.0	743.4899450882635	409.53975905390917	0.0	876.3620694718243	292.5805395413265	0.0	911.2074777124606	419.4726368044836	0.0	858.22157302171	439.77295875205937	0.0
